<svg xmlns="http://www.w3.org/2000/svg" viewBox="0 0 161.55 126.99"><defs><style>.cls-1{fill:none;}.cls-1,.cls-2{stroke:#000;stroke-miterlimit:10;stroke-width:2px;}.cls-2{fill:#fff;}</style></defs><g id="Layer_2" data-name="Layer 2"><g id="Layer_1-2" data-name="Layer 1"><circle class="cls-1" cx="80.78" cy="10.79" r="4.88"/><circle class="cls-1" cx="80.78" cy="10.79" r="9.79"/><path class="cls-1" d="M23.38,54.55S25,56.84,25,68v32.74c0,12.53,25,20.93,55.76,20.93s55.76-8.4,55.76-20.93V68c0-11.16,1.63-13.45,1.63-13.45"/><path class="cls-1" d="M137.25,48.94s2.17,3.86,0,7.58c-3,5.17-20.47,7.56-56.47,7.56S27.3,61.69,24.3,56.52c-2.16-3.72,0-7.58,0-7.58"/><path class="cls-2" d="M80.78,15.51c30.6,0,56.47,28.1,56.47,33.43S112,57.26,80.78,57.26s-56.48-3-56.48-8.32S50.17,15.51,80.78,15.51Z"/><path class="cls-1" d="M122,115.21c0,3.18-9.8,10.78-22.66,10.78H62.19c-12.86,0-22.66-7.6-22.66-10.78"/><path class="cls-1" d="M136.54,75.54a25,25,0,0,0,9.16,1.62c8.2,0,14.85-3.4,14.85-7.6S153.9,62,145.7,62a25.05,25.05,0,0,0-9.11,1.6"/><path class="cls-1" d="M136.54,70.54c1.17,1.15,4.36,2,8.12,2,4.75,0,8.61-1.32,8.61-3s-3.86-2.94-8.61-2.94c-3.76,0-6.95.82-8.12,2"/><path class="cls-1" d="M25,75.54a25.12,25.12,0,0,1-9.17,1.62C7.65,77.16,1,73.76,1,69.56S7.65,62,15.85,62A25.05,25.05,0,0,1,25,63.57"/><path class="cls-1" d="M25,70.54c-1.18,1.15-4.37,2-8.13,2-4.75,0-8.61-1.32-8.61-3s3.86-2.94,8.61-2.94c3.76,0,7,.82,8.13,2"/></g></g></svg>