<svg xmlns="http://www.w3.org/2000/svg" viewBox="0 0 72.13 124.55"><defs><style>.cls-1{fill:none;stroke:#000;stroke-miterlimit:10;stroke-width:2px;}</style></defs><g id="Layer_2" data-name="Layer 2"><g id="Layer_1-2" data-name="Layer 1"><ellipse class="cls-1" cx="36.06" cy="5.74" rx="33.53" ry="4.74"/><path class="cls-1" d="M69.6,5.74s1.86,3.14,1.46,3.81S64.21,15,36.06,15s-34.5-4.62-35-5.43S2.53,5.74,2.53,5.74"/><path class="cls-1" d="M71.11,9.21s1.06,4.07-12.91,14.85a3.85,3.85,0,0,1,0,3.67S70.78,34.5,70.78,55.39V110c0,7.49-15.54,13.56-34.72,13.56S1.34,117.48,1.34,110h0V55.39c0-20.89,12.58-27.66,12.58-27.66a3.88,3.88,0,0,1,0-3.67C0,13.28,1,9.21,1,9.21"/><path class="cls-1" d="M13.92,24.06s5.24,3,22.14,3,22.14-3,22.14-3"/><path class="cls-1" d="M13.92,27.74s5.24,3,22.14,3,22.14-3,22.14-3"/><path class="cls-1" d="M3.11,43s7.8,5,33,5,33-5,33-5"/><path class="cls-1" d="M1.34,106.09s8.22,8.36,34.72,8.36,34.72-8.36,34.72-8.36"/></g></g></svg>