<svg xmlns="http://www.w3.org/2000/svg" viewBox="0 0 151.16 113.95"><defs><style>.cls-1{fill:none;stroke:#000;stroke-miterlimit:10;stroke-width:2px;}</style></defs><g id="Layer_2" data-name="Layer 2"><g id="Layer_1-2" data-name="Layer 1"><path class="cls-1" d="M112.74,66.6c22.37,2.14,37.42,6.14,37.42,10.72,0,6.83-33.39,12.36-74.58,12.36S1,84.15,1,77.32c0-4.58,15.06-8.58,37.42-10.72"/><path class="cls-1" d="M150.16,77.32C150.16,82.76,135,113,75.58,113S1,82.76,1,77.32"/><ellipse class="cls-1" cx="75.58" cy="7.2" rx="47.19" ry="6.2"/><path class="cls-1" d="M28.39,7.2s.18,53.68,21.7,81.74c8,.48,16.54.74,25.49.74s17.53-.26,25.49-.74c21.52-28.06,21.7-81.74,21.7-81.74"/><path class="cls-1" d="M122,23.89a33.07,33.07,0,0,1,10.08-1.37c6.21,0,13.68,3,14.5,9.12.5,3.68-6.07,22-7.56,23.58-5.54,5.15-19.4,7.54-24.23,6"/><path class="cls-1" d="M121.13,31.18a34.5,34.5,0,0,1,5-.79c4.4-.37,9.83.86,10.7,4.26.53,2-3.26,12.73-4.24,13.7-3.31,2.9-11.47,4.95-15.63,4.91"/></g></g></svg>