<svg xmlns="http://www.w3.org/2000/svg" viewBox="0 0 123.09 127"><defs><style>.cls-1{fill:none;stroke:#000;stroke-miterlimit:10;stroke-width:2px;}</style></defs><g id="Layer_2" data-name="Layer 2"><g id="Layer_1-2" data-name="Layer 1"><path class="cls-1" d="M1,10.93c0,2.12,6.78,4.08,11.69,5.7,7.77,2.55,20.63,4.22,35.18,4.22,23.74,0,43-4.44,43-9.92S71.61,1,47.87,1C33.34,1,20.5,2.67,12.72,5.22,7.8,6.83,1,8.8,1,10.93Z"/><ellipse class="cls-1" cx="46.92" cy="10.93" rx="31.29" ry="3.71"/><path class="cls-1" d="M90.84,10.77v11a2.68,2.68,0,0,0,2.68,2.68h20.72a7.84,7.84,0,0,1,7.85,7.85v42a7.86,7.86,0,0,1-4.34,7L92.33,94a2.72,2.72,0,0,0-1.49,2.42v14s0,15.63-43,15.63-43-15.63-43-15.63V13.92"/><path class="cls-1" d="M90.84,83.72a1.9,1.9,0,0,0,2.82,1.65L111,75.7a6,6,0,0,0,3.26-5.37V38.25a6,6,0,0,0-5.89-6H92.74a1.9,1.9,0,0,0-1.9,1.89Z"/></g></g></svg>