<svg xmlns="http://www.w3.org/2000/svg" viewBox="0 0 127.92 127"><defs><style>.cls-1{fill:none;stroke:#000;stroke-miterlimit:10;stroke-width:2px;}</style></defs><g id="Layer_2" data-name="Layer 2"><g id="Layer_1-2" data-name="Layer 1"><path class="cls-1" d="M108.21,24.57c-10.64,3-26.45,4.95-44.11,4.95-18.16,0-34.38-2-45-5.22"/><path class="cls-1" d="M126.94,61.51s-16,11-62.34,11S1,61.14,1,61.14"/><ellipse class="cls-1" cx="63.65" cy="15.06" rx="42.98" ry="6.8"/><path class="cls-1" d="M1,61.66c0-6,13.71-29,18.08-37.36"/><path class="cls-1" d="M108.63,24.39c4.37,8.34,18.29,30.87,18.29,36.89v.38c0,6.25-3,34.7-26.78,52.55A58,58,0,0,1,64.3,126a58,58,0,0,1-36.52-11.78C4,96.36,1,67.91,1,61.66c0-6,13.71-29,18.08-37.36-8.1-2.42-13-5.81-13-9.19C6.1,7.32,32.07,1,64.1,1s58,6.32,58,14.11C122.11,18.59,117.18,21.93,108.63,24.39Z"/></g></g></svg>