<svg xmlns="http://www.w3.org/2000/svg" viewBox="0 0 61.02 126.99"><defs><style>.cls-1{fill:none;stroke:#000;stroke-miterlimit:10;stroke-width:2px;}</style></defs><g id="Layer_2" data-name="Layer 2"><g id="Layer_1-2" data-name="Layer 1"><ellipse class="cls-1" cx="30.51" cy="3.74" rx="18.2" ry="2.74"/><path class="cls-1" d="M48.16,4.41S42.6,15,45.47,25.63c0,0,3.24,1.71,4.3,6.77,0,0,11.71,2.6,10.1,23.53s-2.53,40.57-1.5,57.24h0a4.36,4.36,0,0,1,.9,2.56c0,5.66-12.88,10.26-28.76,10.26s-28.76-4.6-28.76-10.26a4.36,4.36,0,0,1,.9-2.56c1-16.67.11-36.32-1.5-57.24S11.25,32.4,11.25,32.4c1.06-5.06,4.3-6.77,4.3-6.77C18.42,15,12.86,4.41,12.86,4.41"/><path class="cls-1" d="M45.11,14a55.55,55.55,0,0,1-14.6,1.63A55.55,55.55,0,0,1,15.91,14"/><path class="cls-1" d="M45.47,25.64c-3.29,1.2-8.76,2-15,2s-11.67-.78-15-2"/><path class="cls-1" d="M50.1,32.64c-4.3,2.24-11.48,3.71-19.6,3.71s-15.3-1.47-19.6-3.71"/><path class="cls-1" d="M59.49,59.79c-6.37,2.24-17,3.71-29,3.71S7.88,62,1.51,59.79"/><path class="cls-1" d="M58.2,82.22c-6.09,2.84-16.22,4.7-27.7,4.7S8.88,85.06,2.8,82.22"/><path class="cls-1" d="M58.4,113.05c-6.13,2.84-16.34,4.71-27.9,4.71s-21.77-1.87-27.9-4.71"/></g></g></svg>