<svg xmlns="http://www.w3.org/2000/svg" viewBox="0 0 111.65 152.95"><defs><style>.cls-1{fill:none;}.cls-1,.cls-2{stroke:#000;stroke-miterlimit:10;stroke-width:2px;}.cls-2{fill:#fff;}</style></defs><g id="Layer_2" data-name="Layer 2"><g id="Layer_1-2" data-name="Layer 1"><ellipse class="cls-1" cx="46.24" cy="78.97" rx="45.22" ry="14.71"/><ellipse class="cls-1" cx="46.24" cy="78.97" rx="35.38" ry="10.97"/><path class="cls-1" d="M91.46,79s1.32,37.39-15.38,55.66c-10.12,11.07-22.88,11-29.84,11s-19.71,0-29.83-11C-.29,116.36,1,79,1,79"/><path class="cls-1" d="M18.8,137S19,152,46.24,152h0C73.45,152,73.68,137,73.68,137"/><ellipse class="cls-2" cx="98.58" cy="11.97" rx="9.91" ry="12.94" transform="translate(33.05 86.59) rotate(-55.63)"/><path class="cls-2" d="M100.4,22.91,77.25,56.73a7.71,7.71,0,0,1-10.67,2h0a7.7,7.7,0,0,1-2-10.68L87.73,14.23s1.78-2.5,8.08,1.79S100.4,22.91,100.4,22.91Z"/><path class="cls-2" d="M78.35,44.59l-2.85-2a15,15,0,0,0-20.76,3.89L26.33,88a98.24,98.24,0,0,0,19.91,1.9,96.69,96.69,0,0,0,20.56-2L82.24,65.34A15,15,0,0,0,78.35,44.59Z"/><path class="cls-2" d="M70.79,82.18S67.58,78.4,57.58,71.87s-14.72-8-14.72-8"/></g></g></svg>