<svg xmlns="http://www.w3.org/2000/svg" viewBox="0 0 87.36 162.19"><defs><style>.cls-1,.cls-2{fill:none;}.cls-1,.cls-2,.cls-3{stroke:#000;stroke-miterlimit:10;stroke-width:2px;}.cls-2{stroke-linecap:round;}.cls-3{fill:#fff;}</style></defs><g id="Layer_2" data-name="Layer 2"><g id="Layer_1-2" data-name="Layer 1"><ellipse class="cls-1" cx="43.68" cy="46.16" rx="42.68" ry="9.97"/><path class="cls-1" d="M75.71,137.94c-2.06,4.89-15.61,8.67-32,8.67-16.59,0-30.26-3.86-32.09-8.83"/><path class="cls-1" d="M82.18,81.88c-2.47,4.9-18.76,8.68-38.49,8.68-19.94,0-36.37-3.87-38.57-8.84"/><path class="cls-1" d="M83,75.08c-2.53,4.89-19.16,8.67-39.3,8.67-20.36,0-37.13-3.86-39.38-8.83"/><path class="cls-1" d="M84,66.25c-2.6,4.89-19.65,8.67-40.31,8.67-20.88,0-38.08-3.86-40.38-8.83"/><ellipse class="cls-1" cx="43.68" cy="46.16" rx="35.52" ry="5.53"/><path class="cls-1" d="M86.36,46.16,74.07,151.36a4.42,4.42,0,0,1-3.68,3.6c-3.4.5-2.11,2.82-7.35,3.6s-4.7-.31-8.3.39-3.41,2.24-11.06,2.24-7.46-1.53-11.06-2.24-3,.39-8.29-.39-3.95-3.1-7.36-3.6a4.42,4.42,0,0,1-3.68-3.6L1,46.16"/><line class="cls-1" x1="20.6" y1="66.87" x2="25.86" y2="144.95"/><path class="cls-1" d="M77.7,119.52A10.83,10.83,0,0,1,80.17,98"/><path class="cls-1" d="M25.55,55.25s-.75,4.67-.21,5.46,2.73.67,2.61,4c-.08,2-2.42,2.9-7.35,2.2s-7.18-2.22-7.1-4.23c.13-3.29,2.3-2.55,2.89-3.18S16.6,54,16.6,54"/><path class="cls-2" d="M66.52,32.81c.1,1.73.78,3.1,1.53,3s1.26-1.47,1.16-3.2A4.82,4.82,0,0,0,68.39,30"/><path class="cls-1" d="M63.35,36.43a3.49,3.49,0,0,1,6.9,1"/><path class="cls-1" d="M21,47.35c-.17-10.64,1.27-41.08,22.68-46,16.64-3.82,21.76,24,22.88,32"/><circle class="cls-3" cx="21.14" cy="51.01" r="3.48"/><path class="cls-2" d="M21,48.05c.17,2-.39,3.62-1.23,3.7s-1.67-1.47-1.84-3.44c-.13-1.59.2-3,.78-3.49"/></g></g></svg>