<svg xmlns="http://www.w3.org/2000/svg" viewBox="0 0 177.33 88.96"><defs><style>.cls-1{fill:none;stroke:#000;stroke-miterlimit:10;stroke-width:2px;}</style></defs><g id="Layer_2" data-name="Layer 2"><g id="Layer_1-2" data-name="Layer 1"><path class="cls-1" d="M160.85,31.38c0,15.43-20.58,56.58-72,56.58s-72-41.15-72-56.58"/><ellipse class="cls-1" cx="88.83" cy="31.38" rx="72.02" ry="30.38"/><ellipse class="cls-1" cx="88.83" cy="31.38" rx="64.48" ry="23.53"/><path class="cls-1" d="M45.05,48.44c0-6.51,19.6-11.79,43.78-11.79s43.77,5.28,43.77,11.79"/><path class="cls-1" d="M159.48,25.46s3.78-2.37,4.32-3.45,1.9-10.54,2.17-10.86c1.48-1.69,5.32.18,5.45,4,0,.82-3.21,8-4.25,9.86s-6.32,4.3-6.32,4.3"/><path class="cls-1" d="M158,22.89a6.88,6.88,0,0,0,2.35-2c.78-1.22,1.92-12.85,2.59-13.53,2.14-2.19,10.89-3.84,13.35,5.16.47,1.71-3.58,12.78-6,15.59s-9.42,4.59-9.42,4.59"/><path class="cls-1" d="M17.85,25.46S14.07,23.09,13.53,22s-1.9-10.54-2.17-10.86c-1.48-1.69-5.32.18-5.44,4,0,.82,3.2,8,4.25,9.86s6.32,4.3,6.32,4.3"/><path class="cls-1" d="M19.33,22.89a6.88,6.88,0,0,1-2.35-2C16.2,19.65,15.06,8,14.39,7.34,12.25,5.15,3.5,3.5,1,12.5c-.47,1.71,3.58,12.78,6,15.59s9.43,4.59,9.43,4.59"/></g></g></svg>