<svg xmlns="http://www.w3.org/2000/svg" viewBox="0 0 91.64 148.08"><defs><style>.cls-1,.cls-4{fill:none;}.cls-1,.cls-2,.cls-3,.cls-4{stroke:#000;stroke-miterlimit:10;}.cls-1,.cls-2{stroke-width:2px;}.cls-2,.cls-3{fill:#fff;}</style></defs><g id="Layer_2" data-name="Layer 2"><g id="Layer_1-2" data-name="Layer 1"><ellipse class="cls-1" cx="41.29" cy="48.12" rx="40.29" ry="7.18"/><path class="cls-1" d="M1,48.12V60.34c0,5.24,18,9.48,40.29,9.48s40.28-4.24,40.28-9.48V48.12"/><path class="cls-1" d="M1,60.34v27c0,6.17,18,11.18,40.29,11.18s40.28-5,40.28-11.18v-27"/><path class="cls-1" d="M1,87.3v33.87c0,7.59,18,13.75,40.29,13.75s40.28-6.16,40.28-13.75V87.3"/><path class="cls-1" d="M1,121.17v11.41c0,8,18,14.5,40.29,14.5s40.28-6.49,40.28-14.5V121.17"/><ellipse class="cls-1" cx="41.29" cy="48.12" rx="17.73" ry="2.43"/><path class="cls-2" d="M14.49,4.16S11,5.06,11,10.64V28.57h6.07V4.16Z"/><path class="cls-2" d="M4.92,45.09s6,2.07,8.11,2.07c0,0,4.57.06,5.28-1.29s-1.75-1.79-6-2.73A30.84,30.84,0,0,0,4.92,45.09Z"/><path class="cls-2" d="M87.32,49.39s.09-1-.92-1c-1.74,0-.73,3.21-.73,4.11C85.67,52.45,87.32,50.85,87.32,49.39Z"/><path class="cls-2" d="M68.91,71C80,69.28,87.32,64.86,87.32,61.52V49.3c0,2.53-7.33,6.24-18.41,7.52-2.82.32-6.73,2.2-6.73,7.07S66,71.27,68.91,71Z"/><path class="cls-2" d="M79.9,137.9V55.54c0-2.59.25-6-5.44-6S68.91,46.38,68.91,44V7.48c0-4.76-2-6.48-5.22-6.48h-38c-2.47,0-4.82,1.12-4.82,5.14v37c0,2.51-2.34,4-7.85,4,2.08,0,1.92-2.82,1.92-2.82V5c0-4,2.34-4,4.44-4h51c3.51,0,4.42,2,4.42,4.13V41.68c0,2.35-.46,4.59,3.37,4.59,4.23,0,7.62,2.07,7.62,6.92v71.14c.14,2,1.42,1.31,3.42,2.61a3,3,0,0,1-.56,5.4,9.62,9.62,0,0,0-4.23,4S79.9,141.68,79.9,137.9Z"/><path class="cls-2" d="M11,25.63V37.17c0,1.32-.17,2.16,1.29,2.16,4.27,0,4.69-1.72,8.06-1.72s8.49-1.87,8.49-6.75-5.05-6.12-8.42-6.12c0,0-2.38,0-7.39,1.72C11.72,26.92,11,26.34,11,25.63Z"/><path class="cls-2" d="M77.61,138.82c0,2.8,7.34,0,7.37-4.44s-7.17-5.69-7.24-2.47C77.7,134.2,77.62,137.75,77.61,138.82Z"/><circle class="cls-3" cx="81.3" cy="134.63" r="1.18"/><path class="cls-3" d="M23.93,12.94H18.75c-.79,0-1.43-1.19-1.43-2.66S18,7.62,18.75,7.62h5.18"/><ellipse class="cls-3" cx="23.93" cy="10.28" rx="1.44" ry="2.66"/><ellipse class="cls-4" cx="17.99" cy="18.7" rx="0.89" ry="1.38"/></g></g></svg>