<svg xmlns="http://www.w3.org/2000/svg" viewBox="0 0 198.19 125.01"><defs><style>.cls-1,.cls-2{fill:none;}.cls-1,.cls-2,.cls-3{stroke:#000;stroke-miterlimit:10;}.cls-1{stroke-width:2px;}.cls-2,.cls-3{stroke-width:1.5px;}.cls-3{fill:#fff;}</style></defs><g id="Layer_2" data-name="Layer 2"><g id="Layer_1-2" data-name="Layer 1"><path class="cls-1" d="M98,32.53s.15-3.43,4.26-3.43,89.5,5.69,91,5.78,4,.51,4,3.5v5.21c0,2-.72,4.12-4,4.12H112c-2.12,0-2.69-.6-2.69-2.06s-.57-2.06-2.68-2.06H102"/><path class="cls-1" d="M98.91,69.63c15.86,0,13.91-8,27.83-9.55,27.62-3.15,64.2-2.93,66.43-2.93s3.76-.4,3.76-3v-2.6c0-2.34-.46-4-3.76-3.85S112,49.14,112,49.14c-2.11.09-2.66,1-2.6,2.48s-.77,2.15-2.88,2.24H98.91"/><path class="cls-1" d="M93.82,31.49C99,32.57,102,33.85,102,35.23c0,3.79-22.61,6.86-50.5,6.86S1,39,1,35.23c0-1.38,3-2.66,8.19-3.74"/><path class="cls-1" d="M98.91,49.11v55.15c0,10.91-21.22,19.75-47.4,19.75S4.1,115.17,4.1,104.26V49.11"/><path class="cls-1" d="M102,35.23V45.85c0,6-22.61,6.85-50.5,6.85S1,51.87,1,45.85V35.23"/><ellipse class="cls-1" cx="51.51" cy="21.73" rx="40.53" ry="4.3"/><path class="cls-1" d="M11,21.73s-1.79.9-1.79,10.49c0,3,18.94,6.19,42.32,6.19s42.32-3.15,42.32-6.19c0-9.59-1.8-10.49-1.8-10.49"/><ellipse class="cls-2" cx="51.51" cy="1.75" rx="7.34" ry="1"/><path class="cls-2" d="M58.85,1.75V9.21c0,.47-3.29.86-7.34.86s-7.34-.39-7.34-.86V1.75"/><polyline class="cls-3" points="54.82 13.2 54.82 20.67 51.51 20.67 48.19 20.67 48.19 13.2"/><path class="cls-2" d="M57.53,9.74s.39,3.46-2.71,3.46H48.19c-3.1,0-2.71-3.46-2.71-3.46"/></g></g></svg>