<svg xmlns="http://www.w3.org/2000/svg" viewBox="0 0 81.15 158.42"><defs><style>.cls-1{fill:none;}.cls-1,.cls-2{stroke:#000;stroke-miterlimit:10;stroke-width:2px;}.cls-2{fill:#fff;}</style></defs><g id="Layer_2" data-name="Layer 2"><g id="Layer_1-2" data-name="Layer 1"><path class="cls-1" d="M24,152.51a5.83,5.83,0,1,1-11.52-1.86"/><path class="cls-1" d="M58,152.28a5.84,5.84,0,0,0,10.6-1.76"/><path class="cls-1" d="M76.85,101.8s2.71,32.64,3.13,36.8S82.92,153,40.57,153,.76,142.76,1.17,138.6s3.12-36.8,3.12-36.8"/><path class="cls-1" d="M40.57,116.24c5.63,0,11-.26,15.71-.71,0,0-.51,19.89-2.21,23.57s-5.88,6.1-13.5,6.1-11.75-2.32-13.49-6.1-2.21-23.57-2.21-23.57c4.75.45,10.08.71,15.7.71"/><circle class="cls-1" cx="45.45" cy="130.36" r="2.28"/><circle class="cls-1" cx="35.7" cy="130.36" r="2.28"/><circle class="cls-1" cx="45.45" cy="138.07" r="2.28"/><circle class="cls-1" cx="35.7" cy="138.07" r="2.28"/><path class="cls-1" d="M40.57,120.09h9.59s.35,2-.76,2.69-3.83.88-8.83.88-7.64-.13-8.82-.88-.76-2.69-.76-2.69Z"/><path class="cls-1" d="M65.39,96.54c7.06,1.32,11.46,3.19,11.46,5.26,0,4-16.24,7.22-36.28,7.22S4.29,105.79,4.29,101.8c0-2.07,4.41-3.94,11.47-5.26"/><path class="cls-1" d="M66,91c0,7.53-.77,12.43-25.46,12.43S15.11,98.54,15.11,91"/><path class="cls-1" d="M77.16,14.6s-3.24,37.86-4,51.79-1,32.76-32.56,32.76S8.8,80.33,8,66.39,4,14.6,4,14.6"/><path class="cls-1" d="M57.93,9.58c11.45,1,19.23,2.85,19.23,5,0,3.14-16.38,5.69-36.59,5.69S4,17.74,4,14.6c0-2.17,7.78-4.06,19.23-5"/><rect class="cls-2" x="22.31" y="1" width="36.54" height="12.29" rx="5.86"/><rect class="cls-1" x="27.5" y="5.23" width="26.14" height="3.82" rx="1.91"/></g></g></svg>