<svg xmlns="http://www.w3.org/2000/svg" viewBox="0 0 127 127"><defs><style>.cls-1,.cls-2,.cls-3{fill:none;stroke:#000;stroke-width:2px;}.cls-1{stroke-miterlimit:10;}.cls-2{stroke-linecap:round;}.cls-2,.cls-3{stroke-linejoin:round;}</style></defs><g id="Layer_2" data-name="Layer 2"><g id="Layer_1-2" data-name="Layer 1"><ellipse class="cls-1" cx="55.69" cy="8.81" rx="39.06" ry="7.81"/><ellipse class="cls-1" cx="55.69" cy="8.81" rx="27.78" ry="3.1"/><path class="cls-1" d="M94.75,8.81v13A256.49,256.49,0,0,1,98.66,63.5c0,21-3.91,31.25-3.91,31.25S93.64,108.2,55.69,108.2,16.62,94.75,16.62,94.75s-3.9-10.26-3.9-31.25a257.12,257.12,0,0,1,3.9-41.67v-13"/><path class="cls-1" d="M94.75,94.75v10s-1.11,13.46-39.06,13.46-39.07-13.46-39.07-13.46v-10"/><path class="cls-1" d="M16.62,104.73v7.82S17.73,126,55.69,126s39.06-13.45,39.06-13.45v-7.82"/><polyline class="cls-2" points="16.63 11.85 1 16.63 14.91 32.25"/><line class="cls-1" x1="1" y1="16.63" x2="16.63" y2="21.83"/><path class="cls-3" d="M94.75,94.75S126,91.09,126,51.78,94.75,12.72,94.75,12.72v9.11s23.53-.19,23.53,30.39C118.28,77,103.07,83.57,97,85.16"/></g></g></svg>