<svg xmlns="http://www.w3.org/2000/svg" viewBox="0 0 175.77 93.19"><defs><style>.cls-1{fill:none;}.cls-1,.cls-2{stroke:#000;stroke-miterlimit:10;stroke-width:2px;}.cls-2{fill:#fff;}</style></defs><g id="Layer_2" data-name="Layer 2"><g id="Layer_1-2" data-name="Layer 1"><path class="cls-1" d="M74.21,19.34l-.72,38.24C72.39,74.9,93.23,90.33,120.05,92s49.46-11,50.56-28.27l4.14-38"/><ellipse class="cls-1" cx="124.48" cy="22.55" rx="21.35" ry="50.37" transform="translate(94.06 145.34) rotate(-86.35)"/><ellipse class="cls-1" cx="124.48" cy="22.55" rx="17.1" ry="44.64" transform="matrix(0.06, -1, 1, 0.06, 94.06, 145.34)"/><path class="cls-1" d="M103.55,36.44a81.94,81.94,0,0,1,20.11-1A82.29,82.29,0,0,1,143.51,39"/><path class="cls-1" d="M83.73,48.63a3.39,3.39,0,0,1-4.61-1.23l-5.74-9.95c3.68-.48,7.78,0,8.36,1L85,44A3.38,3.38,0,0,1,83.73,48.63Z"/><path class="cls-1" d="M71.33,33.87a3.17,3.17,0,0,1-1.06.65,12,12,0,0,1-2.82.66c-3.29.45-8.45.63-15.87,1.94-8.34,1.47-27.09,7.65-41.48,10.79-1.07.23-6.86,2.08-8.69-3-1.55-4.35,1.47-7,6-8.22,9.07-2.52,28.93-11,58.34-11.64a6.78,6.78,0,0,1,3.64,1,5.26,5.26,0,0,1,2.54,3.84c0,.23.09.47.13.72C72.26,32.19,72.05,33.2,71.33,33.87Z"/><path class="cls-2" d="M81.74,38.44c-.58-1-4.82-1.47-8.73-1.18a8.77,8.77,0,0,0-2.48.55,8.73,8.73,0,0,0-.26-3.29,3.17,3.17,0,0,0,1.06-.65c.72-.67.93-1.68.7-3.26,0-.25-.08-.49-.13-.72a5.26,5.26,0,0,0-2.54-3.84,56,56,0,0,1,5.68.8l2.12,3.67.06.1,1.16,2,.59,1,1.12,1.94,1.13,1.95.31.54Z"/><path class="cls-1" d="M70.53,37.81a2.3,2.3,0,0,1,0,.26c-1,6.66-8.39,3.31-20.84,4.15-8.14.55-13.58,2-35.42,8.27-4.61,1.32-8.13-.43-9.39-2.36a12.82,12.82,0,0,0,5.25-.22c14.39-3.14,33.14-9.32,41.48-10.79,7.41-1.31,12.58-1.49,15.87-1.94l.89-.14.45-.09.27-.06.53-.14.11,0a4.23,4.23,0,0,0,.57-.2A8.73,8.73,0,0,1,70.53,37.81Z"/></g></g></svg>