<svg xmlns="http://www.w3.org/2000/svg" viewBox="0 0 86.07 125.47"><defs><style>.cls-1,.cls-2{fill:none;stroke:#000;stroke-miterlimit:10;}.cls-1{stroke-width:2px;}</style></defs><g id="Layer_2" data-name="Layer 2"><g id="Layer_1-2" data-name="Layer 1"><ellipse class="cls-1" cx="43.04" cy="6.58" rx="30.74" ry="5.58"/><path class="cls-1" d="M80.72,108.63S77.5,116.55,43,116.55s-37.68-7.92-37.68-7.92"/><ellipse class="cls-2" cx="43.04" cy="6.58" rx="19.59" ry="2.04"/><path class="cls-1" d="M72.38,8.24,64,29.73s32.63,22.43,16.75,78.9c0,8.75-6.56,15.84-37.68,15.84S5.36,117.38,5.36,108.63C-10.52,52.16,22.1,29.73,22.1,29.73L13.68,8.24"/><path class="cls-1" d="M64,29.72A91.17,91.17,0,0,1,43,31.9a90.75,90.75,0,0,1-20.95-2.19"/><path class="cls-1" d="M80.25,52.43C74.68,56.22,60.12,58.92,43,58.92s-31.65-2.7-37.21-6.49"/><path class="cls-1" d="M84.63,71.05C78.4,74.84,62.13,77.54,43,77.54S7.67,74.84,1.45,71.05"/></g></g></svg>