<svg xmlns="http://www.w3.org/2000/svg" viewBox="0 0 166.61 126.93"><defs><style>.cls-1{fill:none;}.cls-1,.cls-2{stroke:#1d1d1b;stroke-miterlimit:10;stroke-width:2px;}.cls-2{fill:#fff;}</style></defs><g id="Layer_2" data-name="Layer 2"><g id="Layer_1-2" data-name="Layer 1"><ellipse class="cls-1" cx="83.31" cy="25.38" rx="54.59" ry="8.03"/><path class="cls-1" d="M31,23.06c-3.82,1.47-6,3.11-6,4.85,0,6.07,26.08,11,58.25,11s58.24-4.92,58.24-11c0-1.74-2.14-3.38-6-4.85"/><path class="cls-1" d="M26.35,30.21S28,33.39,28,48.9V94.42c0,17.4,24.77,31.51,55.33,31.51s55.33-14.11,55.33-31.51V48.9c0-15.51,1.62-18.69,1.62-18.69"/><polygon class="cls-2" points="64.95 24.08 61.07 24.08 64.31 10.26 68.23 10.37 64.95 24.08"/><polygon class="cls-2" points="101.66 24.08 105.55 24.08 102.3 10.26 98.39 10.37 101.66 24.08"/><path class="cls-1" d="M83.31,9.15c2.31,0,2.77-.52,5.45-1.52s5.37.11,7.39,1.52,7.82,2.45,8.1-3.24S99.5.79,96.09,1.31s-12.5.42-12.78.42-9.38.11-12.79-.42S62.08.22,62.36,5.91s6.09,4.65,8.11,3.24,4.69-2.51,7.38-1.52S81,9.15,83.31,9.15Z"/><path class="cls-1" d="M27.17,38.46S10.65,33.54,7,34.8.45,40.74,1.09,44.85,12,56.74,28,60.51"/><path class="cls-1" d="M27.65,43.17s-12.51-3.38-15.36-2.93S7.05,42.91,7.4,45s8.15,6.63,20.25,9.39"/><path class="cls-1" d="M139.44,38.46S156,33.54,159.62,34.8s6.54,5.94,5.91,10.05-11,11.89-26.89,15.66"/><path class="cls-1" d="M139,43.17s12.52-3.38,15.36-2.93,5.24,2.67,4.89,4.8-8.15,6.63-20.25,9.39"/></g></g></svg>